<svg xmlns="http://www.w3.org/2000/svg" width="56" height="44" viewBox="0 0 56 44">
    <g id="Logo" transform="translate(-32.748 -70.603)">
        <g id="Group_1" data-name="Group 1">
            <rect id="Rectangle_1" data-name="Rectangle 1" width="56" height="35.252"
                  transform="translate(32.748 70.603)" fill="#003681"/>
            <rect id="Rectangle_2" data-name="Rectangle 2" width="54.363" height="16.398"
                  transform="translate(33.563 88.623)" fill="#298835"/>
            <path id="Path_1" data-name="Path 1"
                  d="M84.737,91.939V99.49l-.007-.016-6.1-7.67v9.922h.817V94.152l6.105,7.682v-9.9Z" fill="#fff"/>
            <path id="Path_2" data-name="Path 2"
                  d="M71.181,91.753a5.086,5.086,0,1,0,4.99,5.086,5.043,5.043,0,0,0-4.99-5.086m0,9.338a4.254,4.254,0,1,1,4.174-4.252,4.214,4.214,0,0,1-4.174,4.252"
                  fill="#fff"/>
            <path id="Path_3" data-name="Path 3"
                  d="M71.181,94.878a1.961,1.961,0,1,0,1.926,1.961,1.943,1.943,0,0,0-1.926-1.961m0,3.089a1.128,1.128,0,1,1,1.106-1.128,1.12,1.12,0,0,1-1.106,1.128"
                  fill="#fff"/>
            <path id="Path_4" data-name="Path 4"
                  d="M40.177,96.686c-.637-.193-1.362-.377-1.922-.559a1.715,1.715,0,0,1-1.126-1.611,1.677,1.677,0,0,1,.3-.968,1.932,1.932,0,0,1,2.206-.788,2.455,2.455,0,0,1,1.239,1.1l.684-.3a2.627,2.627,0,0,0-1.632-1.6,2.558,2.558,0,0,0-2.01.078,2.685,2.685,0,0,0-1.661,2.481,2.6,2.6,0,0,0,1.372,2.264,9.963,9.963,0,0,0,1.837.568A1.838,1.838,0,0,1,41.1,99.088v.027a2.252,2.252,0,0,1-2.731,1.948A2.65,2.65,0,0,1,36.458,99.4l-.743.3a3.258,3.258,0,0,0,2.235,2.123,3.34,3.34,0,0,0,3.016-.672,2.6,2.6,0,0,0,.964-2.023,2.673,2.673,0,0,0-1.753-2.439"
                  fill="#fff"/>
            <path id="Path_5" data-name="Path 5"
                  d="M62.25,96.686c-.634-.193-1.361-.377-1.921-.559a1.717,1.717,0,0,1-1.122-1.611,1.676,1.676,0,0,1,.3-.968,1.932,1.932,0,0,1,2.206-.788,2.447,2.447,0,0,1,1.237,1.1l.682-.3a2.621,2.621,0,0,0-1.626-1.6A2.564,2.564,0,0,0,60,92.042a2.685,2.685,0,0,0-1.656,2.481,2.6,2.6,0,0,0,1.366,2.264,9.826,9.826,0,0,0,1.839.568,1.837,1.837,0,0,1,1.626,1.733v.027a2.252,2.252,0,0,1-2.732,1.948A2.66,2.66,0,0,1,58.532,99.4l-.746.3a3.27,3.27,0,0,0,2.238,2.123,3.328,3.328,0,0,0,3.012-.672A2.593,2.593,0,0,0,64,99.125a2.676,2.676,0,0,0-1.753-2.439"
                  fill="#fff"/>
            <rect id="Rectangle_3" data-name="Rectangle 3" width="0.813" height="9.735"
                  transform="translate(53.779 91.955)" fill="#fff"/>
            <path id="Path_6" data-name="Path 6"
                  d="M47.443,91.435,43.373,101.7h.882l1.3-3.3h3.769l1.309,3.3h.875Zm-1.554,6.139,1.554-3.919L49,97.573Z"
                  fill="#fff"/>
            <path id="Path_7" data-name="Path 7"
                  d="M39.261,79.54a4.2,4.2,0,0,1,4.04-4.282,3.733,3.733,0,0,1,1.181.191V74.57a4.572,4.572,0,0,0-1.181-.159,4.651,4.651,0,0,0-3.418,1.529,5.258,5.258,0,0,0-1.409,3.6A5.392,5.392,0,0,0,39.9,83.177,4.643,4.643,0,0,0,43.3,84.7a4.332,4.332,0,0,0,1.313-.2v-.881a3.743,3.743,0,0,1-1.313.242,4.234,4.234,0,0,1-4.04-4.317"
                  fill="#fff"/>
            <path id="Path_8" data-name="Path 8"
                  d="M53.115,77.581a2.9,2.9,0,0,0-.768-1.988,2.513,2.513,0,0,0-1.852-.822H47.42v9.634h.789v-4.02H50.1l1.909,4.02h.917l-1.938-4.07a2.771,2.771,0,0,0,2.124-2.754m-2.62,1.959H48.208V75.613h2.287a1.968,1.968,0,0,1,0,3.927"
                  fill="#fff"/>
            <path id="Path_9" data-name="Path 9"
                  d="M56.565,79.362h4.079v-.839H56.565V75.659h4.091v-.866H55.726V84.5h4.959V83.66h-4.12Z" fill="#fff"/>
            <path id="Path_10" data-name="Path 10" d="M76.612,75.608h2.77v8.736h.872V75.608h2.768v-.9h-6.41Z"
                  fill="#fff"/>
            <rect id="Rectangle_4" data-name="Rectangle 4" width="0.872" height="9.713"
                  transform="translate(73.118 74.59)" fill="#fff"/>
            <path id="Path_11" data-name="Path 11"
                  d="M66.348,74.729l-2.653-.012v.008l0,9.639h2.656a4.848,4.848,0,0,0,0-9.635m0,8.786-1.865,0V75.563h1.865a4.006,4.006,0,0,1,0,7.952"
                  fill="#fff"/>
            <rect id="Rectangle_5" data-name="Rectangle 5" width="0.804" height="6.856"
                  transform="translate(38.515 107.746)" fill="#003681"/>
            <path id="Path_12" data-name="Path 12"
                  d="M52.137,114.6h-.749l-2.82-5.287V114.6h-.8v-6.856h.84l.012.023,2.716,5.013v-5.037h.8Z"
                  fill="#003681"/>
            <path id="Path_13" data-name="Path 13"
                  d="M61.5,114.6h-2.09v-6.856H61.5c1.66,0,2.65,1.282,2.65,3.428s-.99,3.427-2.65,3.427m-1.286-.706H61.5c1.156,0,1.791-.967,1.791-2.721s-.635-2.722-1.791-2.722H60.215Z"
                  fill="#003681"/>
            <rect id="Rectangle_6" data-name="Rectangle 6" width="0.804" height="6.856"
                  transform="translate(70.802 107.746)" fill="#003681"/>
            <path id="Path_14" data-name="Path 14"
                  d="M82.995,114.6h-.779l-.559-2.076H79.539l-.551,2.076h-.734l.015-.057,1.825-6.8h1.021l.009.033Zm-3.249-2.782h1.7l-.851-3.273Z"
                  fill="#003681"/>
        </g>
    </g>
</svg>
