<svg width="191" height="161" viewBox="0 0 191 161" fill="none" xmlns="http://www.w3.org/2000/svg">
    <path d="M9.69275 125.83C-12.9017 105.045 8.32789 78.8149 29.3611 71.5696C29.7395 71.4399 30.1226 71.3103 30.5105 71.1807C61.6389 60.92 65.1541 24.5781 100.08 20.5017C134.796 16.4493 131.664 38.2766 165.21 38.2766C192.795 38.2766 200.433 65.4238 177.374 89.0131C153.75 113.179 176.805 156.487 137.276 160.732C107.465 163.93 103.705 137.603 39.3318 130.843C28.7434 129.729 16.1148 131.736 9.69275 125.826V125.83Z" fill="#FFF3EB"/>
    <path d="M168.261 132.84V47.4553C168.261 43.7395 165.254 40.7273 161.546 40.7273L27.1876 40.7273C23.4789 40.7273 20.4724 43.7395 20.4724 47.4553V132.84C20.4724 136.556 23.4789 139.568 27.1876 139.568H161.546C165.254 139.568 168.261 136.556 168.261 132.84Z" fill="#1D478E"/>
    <path d="M161.55 44.3665H27.1922C25.4895 44.3665 24.1093 45.7493 24.1093 47.4552V132.845C24.1093 134.551 25.4895 135.933 27.1922 135.933H161.55C163.253 135.933 164.633 134.551 164.633 132.845V47.4552C164.633 45.7493 163.253 44.3665 161.55 44.3665Z" fill="white"/>
    <path d="M157.532 58.7141H94.3712V121.995H157.532V58.7141Z" fill="white"/>
    <path d="M125.659 105.396V122.018H109.091V113.289C109.091 112.015 109.881 110.878 111.075 110.436L118.726 107.598L121.568 106.697L125.659 105.396Z" fill="#EEEEEE"/>
    <path d="M142.817 113.289V122.018H126.244V105.396L130.358 106.702L133.182 107.598L140.833 110.436C142.022 110.878 142.817 112.015 142.817 113.289Z" fill="#EEEEEE"/>
    <path d="M130.358 98.7908H121.568V107.598H130.358V98.7908Z" fill="#DE9C73"/>
    <path d="M116.519 87.1182H118.721V92.4269H117.25C116.773 92.4269 116.36 92.0948 116.256 91.6262L115.525 88.3646C115.384 87.7277 115.865 87.1182 116.519 87.1182Z" fill="#E8B799"/>
    <path d="M125.949 75.1542L115.497 80.8678L118.535 96.339C118.875 98.0721 120.242 99.7871 122.022 101.152C122.735 101.702 123.62 101.984 124.519 101.984H127.579C128.551 101.984 129.495 101.643 130.244 101.024C131.811 99.728 133.046 97.9902 133.373 96.339L136.996 77.8745L125.958 75.1497L125.949 75.1542Z" fill="#E8B799"/>
    <path d="M135.384 87.1182H133.182V92.4269H134.653C135.13 92.4269 135.543 92.0948 135.648 91.6262L136.379 88.3646C136.519 87.7277 136.038 87.1182 135.384 87.1182Z" fill="#E8B799"/>
    <path d="M115.257 79.644L117.214 89.6245L118.067 89.0331C118.512 88.7238 118.757 88.1961 118.703 87.6548L117.568 76.5188L116.428 77.1011C115.529 77.5605 115.043 78.5659 115.239 79.5575L115.257 79.644Z" fill="#54472D"/>
    <path d="M136.633 79.644L134.676 89.6245L133.822 89.0331C133.377 88.7238 133.132 88.1961 133.187 87.6548L134.322 76.5188L135.461 77.1011C136.36 77.5605 136.846 78.5659 136.651 79.5575L136.633 79.644Z" fill="#54472D"/>
    <path d="M118.524 74.0045H138.075V75.5012C138.075 78.731 135.46 81.3512 132.236 81.3512H116V76.5292C116 75.1327 117.131 74 118.524 74V74.0045Z" fill="#54472D"/>
    <path d="M119.202 81.6137C119.202 83.1604 118.503 84.4159 117.64 84.4159C116.778 84.4159 116.079 83.1604 116.079 81.6137C116.079 80.0671 116.778 78.8115 117.64 78.8115C118.503 78.8115 119.202 80.0671 119.202 81.6137Z" fill="#54472D"/>
    <path d="M135.843 81.6137C135.843 83.1604 135.144 84.4159 134.281 84.4159C133.418 84.4159 132.719 83.1604 132.719 81.6137C132.719 80.0671 133.418 78.8115 134.281 78.8115C135.144 78.8115 135.843 80.0671 135.843 81.6137Z" fill="#54472D"/>
    <path d="M125.963 105.396V122.018H123.166L123.461 120.221L125.214 109.522L124.505 108.558L123.838 107.657L123.893 107.598L125.659 105.719L125.772 105.601L125.963 105.396Z" fill="#DCDCDC"/>
    <path d="M128.76 122.018H125.963V105.396L126.14 105.587L126.244 105.696L128.033 107.598L128.088 107.657L127.411 108.576L126.712 109.522L128.465 120.221L128.76 122.018Z" fill="#DCDCDC"/>
    <path d="M118.721 107.598L121.568 103.194L126.244 105.396L123.597 110.2L118.721 107.598Z" fill="#F8F8F8"/>
    <path d="M133.178 107.598L130.335 103.194L125.659 105.396L128.301 110.2L133.178 107.598Z" fill="#F8F8F8"/>
    <path d="M105.141 95.561H102.834V113.229H120.179V110.918H105.141V95.5655V95.561ZM102.834 67.489V84.566H105.141V69.7999H120.179V67.489H102.834ZM146.177 110.914H131.153V113.225H148.483V95.5564H146.177V110.909V110.914ZM131.153 67.489V69.7999H146.177V84.566H148.483V67.489H131.153Z" fill="#E2E2E2"/>
    <path d="M84.1191 84.002H32.7904C31.6118 84.002 30.6564 84.9592 30.6564 86.14C30.6564 87.3208 31.6118 88.278 32.7904 88.278H84.1191C85.2976 88.278 86.253 87.3208 86.253 86.14C86.253 84.9592 85.2976 84.002 84.1191 84.002Z" fill="#E2E2E2"/>
    <path d="M83.8829 69.145H32.5543C31.3757 69.145 30.4203 70.1022 30.4203 71.2831C30.4203 72.4639 31.3757 73.4211 32.5543 73.4211H83.8829C85.0615 73.4211 86.0169 72.4639 86.0169 71.2831C86.0169 70.1022 85.0615 69.145 83.8829 69.145Z" fill="#E2E2E2"/>
    <path d="M84.1191 98.1904H32.7904C31.6118 98.1904 30.6564 99.1477 30.6564 100.328C30.6564 101.509 31.6118 102.466 32.7904 102.466H84.1191C85.2976 102.466 86.253 101.509 86.253 100.328C86.253 99.1477 85.2976 98.1904 84.1191 98.1904Z" fill="#E2E2E2"/>
    <path d="M84.1191 112.383H32.7904C31.6118 112.383 30.6564 113.341 30.6564 114.521C30.6564 115.702 31.6118 116.659 32.7904 116.659H84.1191C85.2976 116.659 86.253 115.702 86.253 114.521C86.253 113.341 85.2976 112.383 84.1191 112.383Z" fill="#E2E2E2"/>
    <path d="M149.264 126.462H97.9353C96.7568 126.462 95.8014 127.42 95.8014 128.6C95.8014 129.781 96.7568 130.738 97.9353 130.738H149.264C150.443 130.738 151.398 129.781 151.398 128.6C151.398 127.42 150.443 126.462 149.264 126.462Z" fill="#E2E2E2"/>
    <path d="M157.774 51H147V54.2844H157.774V51Z" fill="#1D478E"/>
    <path d="M156.835 136.006C156.835 142.02 154.056 147.383 149.72 150.872C146.905 153.137 143.423 154.607 139.622 154.948C139.127 154.993 138.628 155.016 138.124 155.025C138.056 155.025 137.992 155.025 137.924 155.025H137.915C137.847 155.025 137.779 155.025 137.711 155.025C137.211 155.025 136.716 154.998 136.226 154.952C132.417 154.616 128.939 153.142 126.115 150.876C121.779 147.392 119 142.029 119 136.015C119 125.516 127.468 117 137.915 117C148.362 117 156.83 125.511 156.83 136.015L156.835 136.006Z" fill="#EE3D4B"/>
    <path d="M131.813 133.031C134.814 136.038 137.811 139.04 140.812 142.047C141.239 142.474 141.665 142.902 142.092 143.33C143.332 144.571 145.261 142.643 144.017 141.401C141.016 138.394 138.02 135.392 135.018 132.385C134.592 131.957 134.165 131.529 133.738 131.102C132.499 129.86 130.569 131.789 131.813 133.031Z" fill="white"/>
    <path d="M142.101 131.111C139.1 134.118 136.104 137.12 133.102 140.127C132.676 140.555 132.249 140.982 131.822 141.41C130.583 142.652 132.508 144.585 133.747 143.339C136.748 140.332 139.745 137.33 142.746 134.323C143.173 133.895 143.6 133.467 144.027 133.04C145.266 131.798 143.341 129.865 142.101 131.111Z" fill="white"/>
    <path d="M32.8498 82.9946C32.8498 87.7392 30.6575 91.9706 27.2366 94.7233C25.0157 96.5106 22.2682 97.6698 19.27 97.939C18.8795 97.9749 18.4855 97.9928 18.0879 98C18.0342 98 17.984 98 17.9303 98H17.9231C17.8694 98 17.8157 98 17.7619 98C17.3679 98 16.9774 97.9785 16.5906 97.9426C13.5852 97.677 10.8413 96.5142 8.6132 94.7269C5.19228 91.9777 3.00003 87.7464 3.00003 83.0018C3.00003 74.7185 9.68066 68 17.9231 68C26.1656 68 32.8462 74.7149 32.8462 83.0018L32.8498 82.9946Z" fill="#EE3D4B"/>
    <path d="M18.8329 84.4589C18.8329 84.9434 18.4389 85.3382 17.9553 85.3382C17.4717 85.3382 17.0777 84.9434 17.0777 84.4589C17.0777 83.9744 17.4717 83.5796 17.9553 83.5796C18.4389 83.5796 18.8329 83.9744 18.8329 84.4589Z" fill="#EE3D4B"/>
    <path d="M17.9267 86.5978C17.7404 86.5978 17.5864 86.4435 17.5864 86.2569V84.7675C17.5864 84.5808 17.7404 84.4265 17.9267 84.4265C18.1129 84.4265 18.267 84.5808 18.267 84.7675V86.2569C18.267 86.4435 18.1129 86.5978 17.9267 86.5978Z" fill="#EE3D4B"/>
    <path d="M16.563 88.5351C16.1905 88.2251 16 87.8412 16 87.3869C16 86.9325 16.1863 86.5275 16.563 86.214C16.9355 85.897 17.418 85.7421 18.0106 85.7421C18.6032 85.7421 19.0646 85.9006 19.4371 86.214C19.8095 86.531 20 86.922 20 87.3869C20 87.8518 19.8138 88.2251 19.4371 88.5351C19.0646 88.845 18.5863 89 18.0106 89C17.4349 89 16.9397 88.845 16.563 88.5351ZM19.7799 76L19.3863 83.8437H16.5334L16.1397 76H19.7799Z" fill="white"/>
</svg>
